<svg width="20" height="16" viewBox="0 0 20 16" fill="none" xmlns="http://www.w3.org/2000/svg">
<g id="Group">
<path id="Vector" d="M19.2572 9.02984H16.5271V6.46573H19.2572C19.6675 6.46573 20 6.14109 20 5.74013C20 5.33912 19.6675 5.01429 19.2572 5.01429H16.5271V1.45645C16.5271 0.937095 16.4221 0.5559 16.2151 0.323694C16.0183 0.102791 15.7596 0 15.4014 0C15.0595 0 14.8106 0.102082 14.6176 0.321607C14.413 0.554049 14.3092 0.935952 14.3092 1.45668V5.01472H9.17366L6.9901 1.78573C6.80322 1.49756 6.62751 1.22763 6.45687 0.968523C6.30324 0.735175 6.1534 0.545188 6.01187 0.403328C5.88657 0.277734 5.74378 0.180535 5.57677 0.105824C5.41919 0.0355241 5.21886 0.000236322 4.98184 0.000236322C4.67954 0.000236322 4.40513 0.0811697 4.14237 0.247447C3.88234 0.411914 3.7026 0.615251 3.59282 0.869118C3.49646 1.11038 3.44548 1.48008 3.44548 1.95729V5.01448H0.742471C0.332324 5.01452 0 5.33936 0 5.74032C0 6.14129 0.332324 6.46593 0.742511 6.46593H3.44552V9.03032H0.742511C0.332324 9.03032 0 9.35507 0 9.75616C0 10.157 0.332324 10.4815 0.742511 10.4815H3.44552V14.5437C3.44552 15.0477 3.55389 15.425 3.76853 15.6648C3.97266 15.8934 4.23147 15.9995 4.58294 15.9995C4.92204 15.9995 5.17884 15.8929 5.39179 15.6639C5.60986 15.4292 5.72016 15.0521 5.72016 14.5437V10.4815H10.3672L12.882 14.2499C13.0569 14.499 13.2374 14.7504 13.4175 14.9969C13.5799 15.2183 13.7572 15.4134 13.9442 15.5763C14.1126 15.7237 14.2931 15.8317 14.4808 15.8976C14.674 15.9655 14.8998 16 15.1504 16C15.8305 16 16.527 15.7965 16.527 14.2876V10.4815H19.2572C19.6674 10.4815 19.9999 10.1565 19.9999 9.75568C20 9.35484 19.6675 9.02984 19.2572 9.02984ZM14.3091 6.46569V9.0298H11.8894L10.1556 6.46569H14.3091ZM5.7202 3.51944L6.71806 5.01429H5.7202V3.51944ZM5.7202 9.02984V6.46573H7.68699L9.39842 9.02984H5.7202ZM14.3091 12.6088L12.8711 10.4815H14.3091V12.6088Z" fill="#27214D"/>
</g>
</svg>
