<svg width="16" height="13" viewBox="0 0 16 13" fill="none" xmlns="http://www.w3.org/2000/svg">
<rect width="16" height="13" fill="#E5E5E5"/>
<g id="Home screen one">
<g clip-path="url(#clip0_12_0)">
<rect x="-41" y="-504" width="375" height="812" rx="32" fill="white"/>
<g id="Group 31">
<g id="Rectangle 22" filter="url(#filter0_d_12_0)">
<rect x="-17" y="-147" width="152" height="183" rx="16" fill="white"/>
</g>
<g id="Group 8">
<g id="Group">
<path id="Vector" d="M15.4058 7.22387H13.2217V5.17259H15.4058C15.734 5.17259 16 4.91287 16 4.5921C16 4.2713 15.734 4.01143 15.4058 4.01143H13.2217V1.16516C13.2217 0.749676 13.1377 0.44472 12.9721 0.258955C12.8147 0.0822331 12.6077 0 12.3211 0C12.0476 0 11.8485 0.0816659 11.6941 0.257286C11.5304 0.443239 11.4473 0.748762 11.4473 1.16535V4.01178H7.33893L5.59208 1.42859C5.44258 1.19805 5.30201 0.982102 5.1655 0.774818C5.04259 0.58814 4.92272 0.43615 4.80949 0.322662C4.70925 0.222187 4.59502 0.144428 4.46142 0.0846591C4.33536 0.0284193 4.17509 0.000189058 3.98548 0.000189058C3.74364 0.000189058 3.52411 0.0649358 3.31389 0.197958C3.10588 0.329531 2.96208 0.492201 2.87426 0.695295C2.79717 0.888306 2.75638 1.18406 2.75638 1.56583V4.01159H0.593977C0.26586 4.01162 0 4.27149 0 4.59226C0 4.91303 0.26586 5.17274 0.594009 5.17274H2.75642V7.22425H0.594009C0.26586 7.22425 0 7.48406 0 7.80492C0 8.1256 0.26586 8.38522 0.594009 8.38522H2.75642V11.6349C2.75642 12.0381 2.84311 12.34 3.01483 12.5318C3.17813 12.7147 3.38518 12.7996 3.66635 12.7996C3.93763 12.7996 4.14307 12.7143 4.31343 12.5311C4.48789 12.3434 4.57613 12.0417 4.57613 11.635V8.38522H8.29378L10.3056 11.3999C10.4455 11.5992 10.5899 11.8003 10.734 11.9976C10.8639 12.1747 11.0057 12.3307 11.1553 12.461C11.2901 12.5789 11.4345 12.6653 11.5847 12.7181C11.7392 12.7724 11.9199 12.8 12.1203 12.8C12.6644 12.8 13.2216 12.6372 13.2216 11.4301V8.38522H15.4057C15.7339 8.38522 15.9999 8.12522 15.9999 7.80455C16 7.48387 15.734 7.22387 15.4058 7.22387ZM11.4473 5.17255V7.22384H9.51152L8.12448 5.17255H11.4473ZM4.57616 2.81555L5.37445 4.01143H4.57616V2.81555ZM4.57616 7.22387V5.17259H6.14959L7.51874 7.22387H4.57616ZM11.4473 10.087L10.2969 8.38522H11.4473V10.087Z" fill="#F08626"/>
</g>
</g>
</g>
</g>
</g>
<defs>
<filter id="filter0_d_12_0" x="-77" y="-177" width="272" height="303" filterUnits="userSpaceOnUse" color-interpolation-filters="sRGB">
<feFlood flood-opacity="0" result="BackgroundImageFix"/>
<feColorMatrix in="SourceAlpha" type="matrix" values="0 0 0 0 0 0 0 0 0 0 0 0 0 0 0 0 0 0 127 0" result="hardAlpha"/>
<feOffset dy="30"/>
<feGaussianBlur stdDeviation="30"/>
<feColorMatrix type="matrix" values="0 0 0 0 0.12549 0 0 0 0 0.12549 0 0 0 0 0.12549 0 0 0 0.05 0"/>
<feBlend mode="normal" in2="BackgroundImageFix" result="effect1_dropShadow_12_0"/>
<feBlend mode="normal" in="SourceGraphic" in2="effect1_dropShadow_12_0" result="shape"/>
</filter>
<clipPath id="clip0_12_0">
<rect x="-41" y="-504" width="375" height="812" rx="32" fill="white"/>
</clipPath>
</defs>
</svg>
