<svg width="304" height="236" viewBox="0 0 304 236" fill="none" xmlns="http://www.w3.org/2000/svg">
<path d="M208 63.8351L149.319 94.7614V164.94L199.674 126.481L208 63.8351Z" fill="#F6851F"/>
<path d="M134.649 96.3474L102.533 80.0912L107.688 119.344L134.649 140.358V96.3474Z" fill="#F15C3B"/>
<path d="M142.975 41.2351L95 59.8702L142.975 82.8667L192.14 59.8702L142.975 41.2351Z" fill="#FABA14"/>
<path d="M117.6 29.3404C108.755 21.2323 108.481 0 108.481 0C108.481 0 114.016 3.18201 117.6 5.15439C123.122 8.19333 127.331 8.31789 131.874 12.6877C139.215 19.75 140.597 37.2702 140.597 37.2702C140.597 37.2702 124.603 35.7596 117.6 29.3404Z" fill="#C9D52B"/>
<path d="M148.526 24.979C145.542 28.892 145.751 37.2702 145.751 37.2702C145.751 37.2702 153.295 36.2452 157.249 33.7018C164.017 29.3486 167.558 15.8597 167.558 15.8597C167.558 15.8597 162.927 17.7037 160.025 19.0316C155.427 21.1346 151.592 20.959 148.526 24.979Z" fill="#C9D52B"/>
<g filter="url(#filter0_d_47_3051)">
<path d="M60 181.049C60 172.213 67.1634 165.049 76 165.049H244V189.049C244 197.886 236.837 205.049 228 205.049H60V181.049Z" fill="#FFA451"/>
</g>
<path d="M111.977 193.673C111.737 193.673 111.601 193.513 111.569 193.193C112.641 188.089 113.353 184.137 113.705 181.337C113.577 181.369 113.345 181.385 113.009 181.385C112.657 181.385 112.345 181.353 112.073 181.289C111.817 181.209 111.689 181.081 111.689 180.905C111.689 180.617 111.785 180.441 111.977 180.377C112.185 180.297 112.401 180.265 112.625 180.281C112.849 180.281 112.993 180.281 113.057 180.281L113.897 180.257L113.969 179.657C114.225 177.513 114.593 175.313 115.073 173.057C113.937 173.361 113.025 173.657 112.337 173.945C111.665 174.233 111.065 174.529 110.537 174.833C110.217 175.009 110.009 175.097 109.913 175.097C109.625 175.097 109.481 174.953 109.481 174.665C109.481 174.281 109.849 173.905 110.585 173.537C111.337 173.153 111.961 172.889 112.457 172.745C112.953 172.601 113.921 172.321 115.361 171.905C115.537 171.121 115.673 170.593 115.769 170.321C115.945 170.081 116.145 169.961 116.369 169.961C116.657 169.961 116.801 170.081 116.801 170.321C116.801 170.449 116.761 170.577 116.681 170.705L116.513 171.593C120.225 170.665 124.513 170.161 129.377 170.081C129.649 170.161 129.785 170.297 129.785 170.489C129.785 170.633 129.721 170.777 129.593 170.921C129.481 171.049 129.345 171.137 129.185 171.185C124.273 171.265 119.969 171.785 116.273 172.745L115.865 174.761C115.657 175.769 115.497 176.593 115.385 177.233C115.273 177.857 115.169 178.609 115.073 179.489L115.001 180.137C116.745 179.977 118.129 179.873 119.153 179.825C120.193 179.761 121.241 179.729 122.297 179.729C122.409 179.729 122.489 179.769 122.537 179.849C122.601 179.929 122.633 180.017 122.633 180.113C122.633 180.273 122.569 180.425 122.441 180.569C122.329 180.697 122.185 180.777 122.009 180.809C121.417 180.857 120.793 180.889 120.137 180.905C117.833 180.985 116.073 181.089 114.857 181.217C114.617 183.009 114.281 185.025 113.849 187.265C113.417 189.489 113.009 191.465 112.625 193.193C112.481 193.513 112.265 193.673 111.977 193.673ZM123.201 193.433C122.977 193.433 122.865 193.289 122.865 193.001L123.417 190.145L124.425 185.081C124.873 182.841 125.097 181.721 125.097 181.721C125.161 181.369 125.249 181.113 125.361 180.953C125.473 180.793 125.617 180.713 125.793 180.713C125.953 180.713 126.073 180.753 126.153 180.833C126.249 180.913 126.297 181.057 126.297 181.265C126.297 181.633 126.185 182.193 125.961 182.945C125.849 183.313 125.769 183.625 125.721 183.881C125.657 184.105 125.585 184.361 125.505 184.649C125.425 184.921 125.337 185.241 125.241 185.609C125.673 184.633 126.081 183.857 126.465 183.281C126.849 182.689 127.329 182.129 127.905 181.601C128.449 181.137 128.993 180.905 129.537 180.905C129.937 180.905 130.273 180.993 130.545 181.169C130.817 181.329 130.953 181.521 130.953 181.745C130.953 181.921 130.889 182.065 130.761 182.177C130.633 182.273 130.473 182.321 130.281 182.321C130.137 182.321 130.001 182.289 129.873 182.225C129.777 182.145 129.649 182.105 129.489 182.105C129.281 182.105 128.977 182.249 128.577 182.537C127.825 183.081 127.185 183.801 126.657 184.697C126.145 185.577 125.737 186.473 125.433 187.385C125.145 188.281 124.833 189.369 124.497 190.649L124.281 191.537C124.041 192.801 123.681 193.433 123.201 193.433ZM136.964 193.625C136.484 193.625 136.244 192.985 136.244 191.705C136.244 191.033 136.3 190.361 136.412 189.689C136.524 189.017 136.7 188.145 136.94 187.073L137.132 186.185C136.86 186.713 136.54 187.385 136.172 188.201C135.516 189.545 134.852 190.721 134.18 191.729C133.524 192.737 132.868 193.241 132.212 193.241C131.348 193.241 130.916 192.385 130.916 190.673C130.916 188.545 131.26 186.057 131.948 183.209L132.332 181.745C132.476 181.217 132.724 180.953 133.076 180.953C133.268 180.953 133.404 181.089 133.484 181.361C133.452 181.649 133.388 181.993 133.292 182.393C133.196 182.793 133.132 183.081 133.1 183.257C132.796 184.425 132.548 185.593 132.356 186.761C132.164 187.913 132.052 189.321 132.02 190.985C132.02 191.625 132.124 191.945 132.332 191.945C132.636 191.945 133.044 191.593 133.556 190.889C134.068 190.169 134.7 189.081 135.452 187.625C136.188 186.041 136.892 184.617 137.564 183.353C138.236 182.073 138.764 181.433 139.148 181.433C139.42 181.433 139.556 181.585 139.556 181.889C139.556 182.113 139.356 182.745 138.956 183.785C138.652 184.569 138.452 185.137 138.356 185.489C137.796 187.409 137.444 189.505 137.3 191.777C137.3 191.985 137.316 192.145 137.348 192.257C137.396 192.353 137.468 192.457 137.564 192.569C137.676 192.681 137.732 192.817 137.732 192.977C137.732 193.137 137.644 193.281 137.468 193.409C137.292 193.553 137.124 193.625 136.964 193.625ZM141.231 193.289C140.687 193.289 140.415 192.849 140.415 191.969C140.415 191.745 140.455 191.545 140.535 191.369C140.615 191.097 140.687 190.785 140.751 190.433L141.111 188.825L141.591 186.713C141.751 185.929 141.943 185.049 142.167 184.073C142.199 183.977 142.231 183.817 142.263 183.593C142.423 182.905 142.503 182.505 142.503 182.393V182.153C142.503 182.025 142.447 181.761 142.335 181.361C142.335 181.169 142.399 180.993 142.527 180.833C142.671 180.673 142.839 180.593 143.031 180.593C143.207 180.593 143.359 180.713 143.487 180.953C143.615 181.193 143.679 181.457 143.679 181.745C143.679 182.065 143.311 183.793 142.575 186.929C141.839 190.065 141.471 191.729 141.471 191.921C141.471 192.097 141.551 192.185 141.711 192.185C141.791 192.185 141.935 192.081 142.143 191.873C142.335 191.681 142.495 191.585 142.623 191.585C142.879 191.585 143.007 191.745 143.007 192.065C143.007 192.257 142.895 192.449 142.671 192.641C142.447 192.833 142.191 192.985 141.903 193.097C141.615 193.225 141.391 193.289 141.231 193.289ZM143.655 178.793C143.399 178.793 143.207 178.761 143.079 178.697H142.983C142.519 178.697 142.287 178.425 142.287 177.881C142.287 177.609 142.399 177.361 142.623 177.137C142.863 176.913 143.119 176.801 143.391 176.801C143.663 176.801 143.919 176.897 144.159 177.089C144.431 177.361 144.567 177.625 144.567 177.881C144.567 178.121 144.471 178.337 144.279 178.529C144.103 178.705 143.895 178.793 143.655 178.793ZM147.42 193.145C146.86 193.145 146.436 193.001 146.148 192.713C145.876 192.425 145.74 191.905 145.74 191.153C145.74 190.737 145.788 190.257 145.884 189.713L146.1 188.345L146.364 187.217L146.508 186.569L146.82 185.249C146.852 185.041 146.924 184.705 147.036 184.241L147.156 183.761L147.372 182.729L147.516 182.009C146.892 182.009 146.316 182.049 145.788 182.129C145.468 182.081 145.308 181.945 145.308 181.721C145.308 181.561 145.372 181.409 145.5 181.265C145.628 181.121 145.78 181.041 145.956 181.025L147.684 181.073C147.684 181.073 147.724 180.873 147.804 180.473C147.836 180.153 147.9 179.785 147.996 179.369C148.092 178.953 148.212 178.585 148.356 178.265C148.5 177.913 148.708 177.737 148.98 177.737C149.236 177.737 149.364 177.881 149.364 178.169V178.313C149.3 178.633 149.244 178.865 149.196 179.009L148.788 181.049H150.516C151.124 181.049 151.5 181.097 151.644 181.193C151.772 181.289 151.836 181.409 151.836 181.553C151.836 181.809 151.716 181.977 151.476 182.057C151.252 182.121 150.86 182.153 150.3 182.153C149.788 182.153 149.22 182.129 148.596 182.081C148.5 182.609 148.172 184.073 147.612 186.473C147.1 188.649 146.844 190.025 146.844 190.601C146.844 191.225 146.916 191.633 147.06 191.825C147.14 191.953 147.308 192.017 147.564 192.017C147.788 192.017 147.98 191.961 148.14 191.849C148.316 191.721 148.492 191.553 148.668 191.345C148.844 191.121 148.996 190.953 149.124 190.841C149.252 190.729 149.388 190.673 149.532 190.673C149.852 190.673 150.012 190.833 150.012 191.153C150.012 191.313 149.852 191.577 149.532 191.945C149.212 192.313 148.908 192.609 148.62 192.833C148.364 193.041 147.964 193.145 147.42 193.145ZM159.904 193.865C159.664 193.865 159.528 193.705 159.496 193.385C160.04 191.097 160.88 187.897 162.016 183.785C162.128 183.417 162.28 182.865 162.472 182.129C161.96 182.273 161.608 182.441 161.416 182.633C161.224 182.825 161.128 183.073 161.128 183.377C161.128 183.601 161.088 183.777 161.008 183.905C160.944 184.017 160.792 184.073 160.552 184.073C160.216 184.073 160.048 183.841 160.048 183.377C160.048 182.785 160.256 182.321 160.672 181.985C161.088 181.633 161.784 181.329 162.76 181.073C163.192 179.265 163.632 176.273 164.08 172.097L164.272 170.393C164.32 170.009 164.552 169.817 164.968 169.817C165.128 169.817 165.24 169.849 165.304 169.913C165.368 169.977 165.392 170.081 165.376 170.225C165.184 172.497 164.704 176.009 163.936 180.761C166.304 180.153 169.352 179.761 173.08 179.585C173.448 176.881 173.888 174.137 174.4 171.353L174.592 170.153C174.624 169.977 174.704 169.841 174.832 169.745C174.976 169.633 175.128 169.577 175.288 169.577C175.4 169.577 175.496 169.617 175.576 169.697C175.656 169.761 175.696 169.857 175.696 169.985C175.696 170.049 175.568 170.865 175.312 172.433C174.672 176.385 174.296 178.761 174.184 179.561H176.872C177 179.561 177.096 179.609 177.16 179.705C177.24 179.785 177.28 179.881 177.28 179.993C177.28 180.121 177.224 180.257 177.112 180.401C177 180.529 176.864 180.617 176.704 180.665L174.016 180.641C173.92 181.409 173.672 182.817 173.272 184.865C172.936 186.657 172.68 188.129 172.504 189.281C172.328 190.417 172.216 191.537 172.168 192.641C172.152 192.833 172.064 192.993 171.904 193.121C171.76 193.249 171.616 193.313 171.472 193.313C171.232 193.313 171.096 193.145 171.064 192.809C171.128 190.969 171.568 188.009 172.384 183.929L172.6 182.801L172.936 180.689C169.224 180.833 166.128 181.241 163.648 181.913C163.248 183.545 162.72 185.513 162.064 187.817C161.392 190.217 160.896 192.073 160.576 193.385C160.4 193.705 160.176 193.865 159.904 193.865ZM183.806 193.625C183.326 193.625 183.086 192.985 183.086 191.705C183.086 191.033 183.142 190.361 183.254 189.689C183.366 189.017 183.542 188.145 183.782 187.073L183.974 186.185C183.702 186.713 183.382 187.385 183.014 188.201C182.358 189.545 181.694 190.721 181.022 191.729C180.366 192.737 179.71 193.241 179.054 193.241C178.19 193.241 177.758 192.385 177.758 190.673C177.758 188.545 178.102 186.057 178.79 183.209L179.174 181.745C179.318 181.217 179.566 180.953 179.918 180.953C180.11 180.953 180.246 181.089 180.326 181.361C180.294 181.649 180.23 181.993 180.134 182.393C180.038 182.793 179.974 183.081 179.942 183.257C179.638 184.425 179.39 185.593 179.198 186.761C179.006 187.913 178.894 189.321 178.862 190.985C178.862 191.625 178.966 191.945 179.174 191.945C179.478 191.945 179.886 191.593 180.398 190.889C180.91 190.169 181.542 189.081 182.294 187.625C183.03 186.041 183.734 184.617 184.406 183.353C185.078 182.073 185.606 181.433 185.99 181.433C186.262 181.433 186.398 181.585 186.398 181.889C186.398 182.113 186.198 182.745 185.798 183.785C185.494 184.569 185.294 185.137 185.198 185.489C184.638 187.409 184.286 189.505 184.142 191.777C184.142 191.985 184.158 192.145 184.19 192.257C184.238 192.353 184.31 192.457 184.406 192.569C184.518 192.681 184.574 192.817 184.574 192.977C184.574 193.137 184.486 193.281 184.31 193.409C184.134 193.553 183.966 193.625 183.806 193.625ZM190.474 193.289C189.77 193.289 189.226 192.977 188.842 192.353C188.474 191.729 188.29 190.953 188.29 190.025C188.29 189.337 188.33 188.665 188.41 188.009C188.49 187.337 188.61 186.545 188.77 185.633L188.866 185.009C189.106 183.505 189.306 182.337 189.466 181.505C189.498 181.297 189.53 181.113 189.562 180.953C189.594 180.793 189.618 180.649 189.634 180.521C189.778 179.769 189.906 179.161 190.018 178.697C190.098 178.217 190.306 177.169 190.642 175.553C190.898 174.417 191.226 172.697 191.626 170.393C191.738 170.137 191.898 170.009 192.106 170.009C192.522 170.009 192.73 170.185 192.73 170.537L192.682 170.705C192.298 173.297 191.85 175.745 191.338 178.049C190.762 180.625 190.338 182.593 190.066 183.953C190.61 182.977 191.13 182.241 191.626 181.745C192.122 181.233 192.666 180.977 193.258 180.977C193.85 180.977 194.322 181.209 194.674 181.673C195.042 182.121 195.226 182.641 195.226 183.233C195.226 184.465 195.034 185.873 194.65 187.457C194.282 189.025 193.794 190.305 193.186 191.297C192.386 192.625 191.482 193.289 190.474 193.289ZM190.474 192.065C191.05 192.065 191.626 191.585 192.202 190.625C192.97 189.393 193.514 187.801 193.834 185.849C193.914 185.241 193.954 184.665 193.954 184.121C193.954 183.465 193.89 182.977 193.762 182.657C193.65 182.321 193.434 182.153 193.114 182.153C192.778 182.153 192.346 182.441 191.818 183.017C191.306 183.577 190.842 184.281 190.426 185.129C190.01 185.961 189.762 186.745 189.682 187.481C189.57 188.553 189.514 189.401 189.514 190.025C189.514 191.385 189.834 192.065 190.474 192.065Z" fill="white"/>
<defs>
<filter id="filter0_d_47_3051" x="0" y="75.0491" width="304" height="160" filterUnits="userSpaceOnUse" color-interpolation-filters="sRGB">
<feFlood flood-opacity="0" result="BackgroundImageFix"/>
<feColorMatrix in="SourceAlpha" type="matrix" values="0 0 0 0 0 0 0 0 0 0 0 0 0 0 0 0 0 0 127 0" result="hardAlpha"/>
<feOffset dy="-30"/>
<feGaussianBlur stdDeviation="30"/>
<feColorMatrix type="matrix" values="0 0 0 0 0.12549 0 0 0 0 0.12549 0 0 0 0 0.12549 0 0 0 0.05 0"/>
<feBlend mode="normal" in2="BackgroundImageFix" result="effect1_dropShadow_47_3051"/>
<feBlend mode="normal" in="SourceGraphic" in2="effect1_dropShadow_47_3051" result="shape"/>
</filter>
</defs>
</svg>
